<svg version="1.1" id="Layer_1" xmlns="http://www.w3.org/2000/svg" xmlns:xlink="http://www.w3.org/1999/xlink" x="0px" y="0px"
	 width="100%" viewBox="0 0 1200 628" enable-background="new 0 0 1200 628" xml:space="preserve">
<path fill="#FEFFFF" opacity="1.000000" stroke="none" 
	d="
M870.000000,629.000000 
	C580.000000,629.000000 290.500031,629.000000 1.000039,629.000000 
	C1.000026,419.666687 1.000026,210.333389 1.000013,1.000067 
	C400.999969,1.000045 800.999939,1.000045 1201.000000,1.000022 
	C1201.000000,210.333267 1201.000000,419.666534 1201.000000,628.999878 
	C1090.833374,629.000000 980.666687,629.000000 870.000000,629.000000 
M609.499939,541.728943 
	C790.599060,541.728943 971.698120,541.728943 1152.849976,541.728943 
	C1152.849976,399.178772 1152.849976,257.255493 1152.849976,115.190659 
	C1001.708191,115.190659 850.805542,115.190659 699.824219,115.190659 
	C699.824219,118.503464 699.824219,121.566727 699.824219,125.036285 
	C847.781067,125.036285 995.371155,125.036285 1142.971069,125.036285 
	C1142.971069,260.693634 1142.971069,395.938812 1142.971069,531.232056 
	C781.624878,531.232056 420.578735,531.232056 59.429111,531.232056 
	C59.429111,395.658112 59.429111,260.421051 59.429111,124.645424 
	C207.435760,124.645424 355.148560,124.645424 502.802307,124.645424 
	C502.802307,121.163292 502.802307,118.226334 502.802307,115.159058 
	C351.634430,115.159058 200.714172,115.159058 49.670425,115.159058 
	C49.670425,257.393341 49.670425,399.418304 49.670425,541.728943 
	C236.213089,541.728943 422.356476,541.728943 609.499939,541.728943 
M182.839508,300.174072 
	C181.395737,310.396271 179.951965,320.618469 178.403931,331.578827 
	C172.280518,295.798126 166.305176,260.882568 160.334824,225.996216 
	C155.195572,225.996216 150.763809,225.996216 145.926315,225.996216 
	C144.225540,270.743500 142.532974,315.275024 140.832779,360.007019 
	C144.974487,360.007019 148.559799,360.007019 152.838806,360.007019 
	C153.821228,327.537811 154.797546,295.270203 155.812973,261.710114 
	C161.173325,294.372864 166.308640,325.664398 171.440216,356.933167 
	C176.119751,356.933167 179.924454,356.933167 184.313751,356.933167 
	C189.382248,326.442719 194.443085,295.998413 199.385605,266.265717 
	C200.146240,297.123260 200.923599,328.658691 201.704681,360.346069 
	C206.407913,360.346069 210.157593,360.346069 214.396408,360.346069 
	C212.700943,315.363678 211.017014,270.687042 209.336624,226.104919 
	C203.983017,226.104919 199.407455,226.104919 194.597198,226.104919 
	C190.680313,250.700745 186.810028,275.003967 182.839508,300.174072 
M1017.897339,276.726959 
	C1026.917114,303.647400 1035.920288,330.573425 1045.019775,357.466949 
	C1045.363647,358.483307 1046.582031,359.838409 1047.489136,359.916412 
	C1050.879028,360.207855 1054.308960,360.032928 1057.606934,360.032928 
	C1057.606934,314.898376 1057.606934,270.497192 1057.606934,225.987030 
	C1053.382324,225.987030 1049.453369,225.987030 1044.591797,225.987030 
	C1045.143066,259.839874 1045.690430,293.455109 1046.234375,326.861694 
	C1045.924683,325.954346 1045.492310,324.745605 1045.097900,323.524567 
	C1034.944824,292.083679 1024.765259,260.651215 1014.700256,229.182144 
	C1013.841614,226.497391 1012.579163,225.447586 1009.765808,225.706848 
	C1007.024109,225.959503 1004.240784,225.761780 1001.530029,225.761780 
	C1001.530029,270.952484 1001.530029,315.470886 1001.530029,359.908417 
	C1005.825012,359.908417 1009.737366,359.908417 1012.976807,359.908417 
	C1012.976807,327.418488 1012.976807,295.260620 1012.976807,263.102783 
	C1013.229065,263.027191 1013.481323,262.951630 1013.733582,262.876038 
	C1015.050354,267.230499 1016.367126,271.584961 1017.897339,276.726959 
M446.036499,286.498932 
	C446.018433,274.842590 446.192291,263.181976 445.931274,251.531082 
	C445.638519,238.461792 438.119598,228.231079 425.793121,226.625595 
	C415.406097,225.272720 404.702911,226.347168 394.214386,226.347168 
	C394.214386,270.966522 394.214386,315.499603 394.214386,359.906128 
	C398.621185,359.906128 402.690765,359.906128 407.113892,359.906128 
	C407.113892,348.506653 407.113892,337.424713 407.113892,326.003021 
	C412.606995,326.003021 417.734161,325.991089 422.861267,326.005707 
	C431.138885,326.029327 434.234741,329.116882 434.282166,337.485596 
	C434.324402,344.934296 434.291077,352.383423 434.291077,360.004578 
	C438.765015,360.004578 442.678925,360.004578 446.890411,360.004578 
	C446.890411,352.330505 446.707184,344.869110 446.939728,337.420624 
	C447.193451,329.294495 444.511322,322.826691 437.156036,318.396332 
	C443.412415,313.507324 445.832214,306.990143 445.989441,299.487122 
	C446.073120,295.492188 446.025055,291.494507 446.036499,286.498932 
M703.126221,261.505066 
	C703.108643,258.172516 703.170166,254.837326 703.059998,251.507812 
	C702.542114,235.853012 691.652039,224.692749 676.737915,224.475266 
	C661.465027,224.252563 649.463806,235.069672 649.196472,250.795807 
	C648.717773,278.948914 648.756042,307.120575 649.183899,335.275299 
	C649.411499,350.253357 660.029053,360.687134 674.558167,361.784882 
	C688.796326,362.860687 699.787415,354.000244 702.605774,338.952332 
	C703.152100,336.035217 703.100586,332.982117 703.105591,329.991394 
	C703.143372,307.495361 703.126221,284.999207 703.126221,261.505066 
M531.247192,248.368668 
	C529.088867,234.101837 519.714417,225.221863 506.073181,224.522537 
	C492.439789,223.823593 481.530945,231.977951 478.463776,245.545792 
	C477.629333,249.236938 477.528931,253.149490 477.516205,256.961853 
	C477.436035,280.956573 477.461548,304.951721 477.494446,328.946625 
	C477.498322,331.773804 477.631836,334.614014 477.924103,337.425415 
	C479.339203,351.036835 489.094757,360.541595 502.798340,361.756714 
	C515.846313,362.913696 526.677917,355.309998 530.258362,342.020935 
	C531.325073,338.061768 531.699951,333.812469 531.721924,329.692535 
	C531.852539,305.198364 531.797180,280.703156 531.769287,256.208313 
	C531.766602,253.883408 531.522461,251.558792 531.247192,248.368668 
M596.585999,324.255981 
	C608.393616,321.883240 617.288757,313.153687 617.931335,301.106201 
	C618.834473,284.173431 619.099304,267.154816 618.518311,250.211243 
	C618.063599,236.951111 610.037720,227.734787 597.761658,226.430557 
	C586.957581,225.282730 575.935120,226.190552 565.010864,226.190552 
	C565.010864,270.868317 565.010864,315.401794 565.010864,359.952759 
	C569.271301,359.952759 573.192688,359.952759 577.510742,359.952759 
	C577.510742,348.248993 577.510742,336.819458 577.510742,324.440125 
	C583.843140,324.440125 589.790100,324.440125 596.585999,324.255981 
M919.583435,343.937225 
	C918.771423,349.167389 917.959412,354.397522 917.110779,359.863831 
	C921.414246,359.863831 925.454407,359.863831 929.531372,359.863831 
	C931.445435,348.101562 933.302002,336.692017 935.162903,325.256042 
	C941.861694,325.256042 947.973999,325.256042 954.379456,325.256042 
	C956.195862,336.978027 957.988403,348.545990 959.758362,359.967957 
	C964.224670,359.967957 967.992004,359.967957 972.157410,359.967957 
	C965.195068,315.162018 958.282837,270.678558 951.359375,226.122986 
	C946.634216,226.122986 942.343628,226.122986 937.602783,226.122986 
	C931.645386,265.168884 925.701965,304.122894 919.583435,343.937225 
M259.038971,306.406219 
	C259.038971,283.312531 259.038971,260.218842 259.038971,236.685242 
	C271.131104,236.685242 282.709351,236.685242 294.464111,236.685242 
	C294.464111,232.852097 294.464111,229.468262 294.464111,226.057159 
	C278.239197,226.057159 262.336609,226.057159 246.413040,226.057159 
	C246.413040,270.854401 246.413040,315.362427 246.413040,359.713013 
	C262.670135,359.713013 278.575684,359.713013 294.565063,359.713013 
	C294.565063,355.957764 294.565063,352.531677 294.565063,348.690002 
	C282.749146,348.690002 271.141113,348.690002 259.388550,348.690002 
	C259.388550,340.562866 259.388550,332.858063 259.388550,324.763489 
	C268.985321,324.763489 278.236145,324.763489 287.472076,324.763489 
	C287.472076,320.954193 287.472076,317.550140 287.472076,313.710938 
	C277.914001,313.710938 268.659454,313.710938 259.038971,313.710938 
	C259.038971,311.307892 259.038971,309.342987 259.038971,306.406219 
M736.051086,263.500000 
	C736.051086,295.616516 736.051086,327.733032 736.051086,359.950317 
	C749.965698,359.950317 763.533691,359.950317 777.132446,359.950317 
	C777.132446,356.186920 777.132446,352.730804 777.132446,348.838867 
	C767.682373,348.838867 758.425964,348.838867 748.707703,348.838867 
	C748.707703,307.689972 748.707703,266.974976 748.707703,226.003662 
	C744.307373,226.003662 740.375732,226.003662 736.051086,226.003662 
	C736.051086,238.257645 736.051086,250.378815 736.051086,263.500000 
M348.702179,237.055954 
	C354.467621,237.055954 360.233032,237.055954 365.818176,237.055954 
	C365.818176,232.935760 365.818176,229.537537 365.818176,226.254471 
	C349.556976,226.254471 333.652466,226.254471 317.709106,226.254471 
	C317.709106,229.958221 317.709106,233.357315 317.709106,237.228424 
	C323.951355,237.228424 329.858856,237.228424 336.096924,237.228424 
	C336.096924,278.438171 336.096924,319.171265 336.096924,359.881836 
	C340.173553,359.881836 343.889465,359.881836 347.993103,359.881836 
	C347.993103,318.927185 347.993103,278.322235 348.702179,237.055954 
M869.500000,225.963501 
	C861.590698,225.963501 853.681396,225.963501 845.879150,225.963501 
	C845.879150,230.034241 845.879150,233.413742 845.879150,237.115570 
	C852.043518,237.115570 857.816956,237.115570 864.069458,237.115570 
	C864.069458,278.302216 864.069458,319.157898 864.069458,359.844238 
	C868.289429,359.844238 872.008911,359.844238 876.073975,359.844238 
	C876.073975,318.747986 876.073975,278.033966 876.073975,236.799088 
	C882.315186,236.799088 888.209717,236.799088 894.032837,236.799088 
	C894.032837,232.989700 894.032837,229.705368 894.032837,225.963501 
	C886.063171,225.963501 878.281555,225.963501 869.500000,225.963501 
M806.778137,277.499939 
	C806.778137,304.903656 806.778137,332.307343 806.778137,359.660583 
	C811.230225,359.660583 815.105652,359.660583 818.799316,359.660583 
	C818.799316,314.889862 818.799316,270.490967 818.799316,226.170868 
	C814.645081,226.170868 810.776306,226.170868 806.778076,226.170868 
	C806.778076,243.208801 806.778076,259.854340 806.778137,277.499939 
M612.005249,118.500000 
	C612.005249,108.411751 612.005249,98.323502 612.005249,88.035103 
	C609.575256,88.154991 607.838806,88.240662 605.795288,88.341492 
	C605.795288,102.746094 605.795288,116.667503 605.795288,130.701263 
	C601.071228,130.701263 596.689392,130.701263 591.831055,130.701263 
	C591.831055,116.357407 591.831055,102.300858 591.831055,88.046295 
	C589.603394,88.156677 587.869934,88.242577 586.250244,88.322838 
	C586.250244,110.063614 586.250244,131.299637 586.250244,152.541153 
	C588.270081,152.541153 589.995789,152.541153 592.178467,152.541153 
	C592.178467,147.168808 592.178467,142.087555 592.178467,137.006165 
	C596.913940,137.006165 601.182800,137.006165 605.935059,137.006165 
	C605.935059,142.287186 605.935059,147.368301 605.935059,152.593491 
	C608.153442,152.593491 609.878296,152.593491 612.005249,152.593491 
	C612.005249,141.401062 612.005249,130.450531 612.005249,118.500000 
M582.195740,431.816772 
	C582.195740,442.248291 582.195740,452.679810 582.195740,463.187500 
	C584.707275,463.187500 586.604309,463.187500 589.040161,463.187500 
	C589.040161,455.016724 589.040161,447.193298 589.040161,438.270233 
	C593.154785,444.294891 596.571655,449.297913 600.157043,454.547699 
	C603.882629,449.121460 607.254456,444.210358 610.626343,439.299286 
	C610.984619,439.480835 611.342957,439.662415 611.701233,439.843964 
	C611.701233,447.473877 611.701233,455.103760 611.701233,462.929199 
	C613.950562,462.929199 615.842224,462.929199 617.746582,462.929199 
	C617.746582,450.779297 617.746582,438.891418 617.746582,427.102295 
	C612.928711,425.762787 610.034485,427.378387 607.866028,431.566467 
	C605.761292,435.631500 602.940491,439.325775 600.040405,443.788757 
	C597.096985,439.246948 594.238647,435.391907 591.988770,431.209503 
	C589.716370,426.985077 586.750366,425.674469 582.195801,427.343658 
	C582.195801,428.582916 582.195801,429.745148 582.195740,431.816772 
M628.994385,137.621887 
	C630.077576,137.014893 631.128906,135.965195 632.250000,135.884491 
	C635.519836,135.649109 638.817566,135.800888 642.327698,135.800888 
	C642.327698,133.743057 642.327698,132.189224 642.327698,130.156158 
	C637.798401,130.156158 633.558105,130.156158 629.270874,130.156158 
	C629.270874,117.778633 629.270874,105.883423 629.270874,93.514481 
	C634.951904,93.514481 640.356506,93.514481 646.063416,93.514481 
	C645.919434,91.451134 645.810242,89.886574 645.701782,88.331863 
	C637.865234,88.331863 630.444092,88.331863 622.902405,88.331863 
	C622.902405,109.778824 622.902405,130.986130 622.902405,152.543167 
	C629.531738,152.543167 635.832886,152.554764 642.133911,152.532532 
	C643.275146,152.528503 644.415833,152.385803 645.623535,152.302505 
	C645.623535,150.413818 645.623535,148.726715 645.623535,146.735229 
	C639.991211,146.735229 634.713989,146.735229 628.987183,146.735229 
	C628.987183,143.814148 628.987183,141.197021 628.994385,137.621887 
M697.420837,454.974609 
	C693.718811,446.472412 690.125916,437.919342 686.207397,429.518158 
	C685.555359,428.120178 683.491821,426.581055 682.067627,426.568512 
	C680.653625,426.556030 678.558228,428.075928 677.909363,429.461395 
	C674.048035,437.705627 670.517761,446.105011 666.880066,454.453918 
	C665.676819,457.215637 664.484741,459.982208 663.294739,462.729797 
	C668.312134,464.302307 670.716125,462.486145 671.916016,458.278137 
	C672.288757,456.971008 673.349426,454.898621 674.198181,454.846222 
	C679.320068,454.529907 684.612671,454.024170 689.541077,455.052856 
	C691.386108,455.437927 692.401489,459.776154 693.810425,462.303497 
	C693.967651,462.585602 694.224670,462.812103 694.251648,462.844421 
	C696.508423,462.844421 698.568909,462.844421 700.820129,462.844421 
	C699.705872,460.184967 698.752136,457.908630 697.420837,454.974609 
M550.598022,454.559113 
	C552.593567,454.559143 554.617065,454.771057 556.578674,454.513062 
	C560.154724,454.042664 562.270325,455.358551 563.014648,458.913544 
	C564.047607,463.846588 567.314636,463.770905 571.496033,462.705811 
	C566.478027,451.122894 561.678284,439.859253 556.641724,428.702545 
	C556.136475,427.583374 554.151794,426.438904 552.930786,426.516632 
	C551.499207,426.607788 549.429810,427.698364 548.880798,428.916168 
	C543.859192,440.055267 539.108154,451.316345 534.206970,462.707306 
	C538.530273,463.926636 541.650574,463.484131 542.580139,458.690674 
	C543.371887,454.607819 546.216492,454.092316 550.598022,454.559113 
M563.623596,113.499878 
	C563.623596,126.474693 563.623596,139.449509 563.623596,152.582550 
	C565.739380,152.582550 567.459839,152.582550 569.716125,152.582550 
	C569.716125,132.884720 569.716125,113.484169 569.716125,93.983948 
	C572.812927,93.815529 575.379395,93.675964 577.946045,93.536385 
	C577.946045,91.504890 577.946045,89.905769 577.946045,88.273773 
	C570.223267,88.273773 562.782166,88.273773 555.292114,88.273773 
	C555.292114,90.170921 555.292114,91.850471 555.292114,94.021179 
	C558.277283,94.021179 560.858032,94.021179 563.623718,94.021179 
	C563.623718,100.513435 563.623718,106.506653 563.623596,113.499878 
M658.553040,434.491669 
	C656.693604,429.860718 653.120483,427.284851 648.299438,427.005096 
	C642.690796,426.679657 637.048828,426.929199 631.263855,426.929199 
	C631.263855,438.984955 631.263855,450.859436 631.263855,462.690857 
	C633.393677,462.690857 635.273315,462.690857 637.633423,462.690857 
	C637.633423,458.793762 637.633423,455.206238 637.633423,451.693970 
	C657.589478,449.237000 660.055176,447.289124 658.553040,434.491669 
M519.234680,451.490387 
	C519.234680,445.379852 519.234680,439.269318 519.234680,432.759949 
	C523.461853,432.759949 527.067200,432.759949 530.655212,432.759949 
	C530.655212,430.618683 530.655212,428.900787 530.655212,427.236511 
	C520.736145,427.236511 511.140381,427.236511 501.198486,427.236511 
	C501.290253,429.251251 501.368103,430.960846 501.464935,433.086334 
	C505.557404,433.086334 509.137573,433.086334 513.062744,433.086334 
	C513.062744,443.292419 513.062744,453.058929 513.062744,462.810547 
	C515.309570,462.810547 517.179016,462.810547 519.234680,462.810547 
	C519.234680,459.128571 519.234680,455.808044 519.234680,451.490387 
z"/>
<path fill="#092F5C" opacity="1.000000" stroke="none" 
	d="
M608.999878,541.728943 
	C422.356476,541.728943 236.213089,541.728943 49.670425,541.728943 
	C49.670425,399.418304 49.670425,257.393341 49.670425,115.159058 
	C200.714172,115.159058 351.634430,115.159058 502.802307,115.159058 
	C502.802307,118.226334 502.802307,121.163292 502.802307,124.645424 
	C355.148560,124.645424 207.435760,124.645424 59.429111,124.645424 
	C59.429111,260.421051 59.429111,395.658112 59.429111,531.232056 
	C420.578735,531.232056 781.624878,531.232056 1142.971069,531.232056 
	C1142.971069,395.938812 1142.971069,260.693634 1142.971069,125.036285 
	C995.371155,125.036285 847.781067,125.036285 699.824219,125.036285 
	C699.824219,121.566727 699.824219,118.503464 699.824219,115.190659 
	C850.805542,115.190659 1001.708191,115.190659 1152.849976,115.190659 
	C1152.849976,257.255493 1152.849976,399.178772 1152.849976,541.728943 
	C971.698120,541.728943 790.599060,541.728943 608.999878,541.728943 
z"/>
<path fill="#052C59" opacity="1.000000" stroke="none" 
	d="
M182.889618,299.740601 
	C186.810028,275.003967 190.680313,250.700745 194.597198,226.104919 
	C199.407455,226.104919 203.983017,226.104919 209.336624,226.104919 
	C211.017014,270.687042 212.700943,315.363678 214.396408,360.346069 
	C210.157593,360.346069 206.407913,360.346069 201.704681,360.346069 
	C200.923599,328.658691 200.146240,297.123260 199.385605,266.265717 
	C194.443085,295.998413 189.382248,326.442719 184.313751,356.933167 
	C179.924454,356.933167 176.119751,356.933167 171.440216,356.933167 
	C166.308640,325.664398 161.173325,294.372864 155.812973,261.710114 
	C154.797546,295.270203 153.821228,327.537811 152.838806,360.007019 
	C148.559799,360.007019 144.974487,360.007019 140.832779,360.007019 
	C142.532974,315.275024 144.225540,270.743500 145.926315,225.996216 
	C150.763809,225.996216 155.195572,225.996216 160.334824,225.996216 
	C166.305176,260.882568 172.280518,295.798126 178.403931,331.578827 
	C179.951965,320.618469 181.395737,310.396271 182.889618,299.740601 
z"/>
<path fill="#062D5A" opacity="1.000000" stroke="none" 
	d="
M1017.790649,276.333191 
	C1016.367126,271.584961 1015.050354,267.230499 1013.733582,262.876038 
	C1013.481323,262.951630 1013.229065,263.027191 1012.976807,263.102783 
	C1012.976807,295.260620 1012.976807,327.418488 1012.976807,359.908417 
	C1009.737366,359.908417 1005.825012,359.908417 1001.530029,359.908417 
	C1001.530029,315.470886 1001.530029,270.952484 1001.530029,225.761780 
	C1004.240784,225.761780 1007.024109,225.959503 1009.765808,225.706848 
	C1012.579163,225.447586 1013.841614,226.497391 1014.700256,229.182144 
	C1024.765259,260.651215 1034.944824,292.083679 1045.097900,323.524567 
	C1045.492310,324.745605 1045.924683,325.954346 1046.234375,326.861694 
	C1045.690430,293.455109 1045.143066,259.839874 1044.591797,225.987030 
	C1049.453369,225.987030 1053.382324,225.987030 1057.606934,225.987030 
	C1057.606934,270.497192 1057.606934,314.898376 1057.606934,360.032928 
	C1054.308960,360.032928 1050.879028,360.207855 1047.489136,359.916412 
	C1046.582031,359.838409 1045.363647,358.483307 1045.019775,357.466949 
	C1035.920288,330.573425 1026.917114,303.647400 1017.790649,276.333191 
z"/>
<path fill="#022A57" opacity="1.000000" stroke="none" 
	d="
M446.036499,286.998474 
	C446.025055,291.494507 446.073120,295.492188 445.989441,299.487122 
	C445.832214,306.990143 443.412415,313.507324 437.156036,318.396332 
	C444.511322,322.826691 447.193451,329.294495 446.939728,337.420624 
	C446.707184,344.869110 446.890411,352.330505 446.890411,360.004578 
	C442.678925,360.004578 438.765015,360.004578 434.291077,360.004578 
	C434.291077,352.383423 434.324402,344.934296 434.282166,337.485596 
	C434.234741,329.116882 431.138885,326.029327 422.861267,326.005707 
	C417.734161,325.991089 412.606995,326.003021 407.113892,326.003021 
	C407.113892,337.424713 407.113892,348.506653 407.113892,359.906128 
	C402.690765,359.906128 398.621185,359.906128 394.214386,359.906128 
	C394.214386,315.499603 394.214386,270.966522 394.214386,226.347168 
	C404.702911,226.347168 415.406097,225.272720 425.793121,226.625595 
	C438.119598,228.231079 445.638519,238.461792 445.931274,251.531082 
	C446.192291,263.181976 446.018433,274.842590 446.036499,286.998474 
M424.394287,313.207703 
	C431.398224,309.721497 433.671692,303.600159 433.697021,296.303619 
	C433.739899,283.971680 433.762695,271.639069 433.676788,259.307587 
	C433.651367,255.656937 433.615448,251.932800 432.907532,248.377090 
	C431.734375,242.484985 428.093201,238.290482 421.993164,237.527176 
	C417.146912,236.920731 412.164246,237.404953 407.208008,237.404953 
	C407.208008,263.186401 407.208008,288.623871 407.208008,314.875305 
	C412.873993,314.438507 418.290497,314.020966 424.394287,313.207703 
z"/>
<path fill="#052C59" opacity="1.000000" stroke="none" 
	d="
M703.126221,262.004089 
	C703.126221,284.999207 703.143372,307.495361 703.105591,329.991394 
	C703.100586,332.982117 703.152100,336.035217 702.605774,338.952332 
	C699.787415,354.000244 688.796326,362.860687 674.558167,361.784882 
	C660.029053,360.687134 649.411499,350.253357 649.183899,335.275299 
	C648.756042,307.120575 648.717773,278.948914 649.196472,250.795807 
	C649.463806,235.069672 661.465027,224.252563 676.737915,224.475266 
	C691.652039,224.692749 702.542114,235.853012 703.059998,251.507812 
	C703.170166,254.837326 703.108643,258.172516 703.126221,262.004089 
M661.788635,275.499939 
	C661.788635,293.467804 661.784302,311.435669 661.794739,329.403534 
	C661.795898,331.398865 661.787048,333.401581 661.943970,335.388153 
	C662.628662,344.058563 668.292236,349.781036 676.150696,349.819641 
	C683.977173,349.858093 689.423279,344.157532 690.038818,335.222229 
	C690.164368,333.399292 690.149414,331.564606 690.149902,329.735352 
	C690.156494,305.112732 690.160889,280.490112 690.143982,255.867508 
	C690.142395,253.541153 690.211670,251.182770 689.874756,248.894226 
	C688.548157,239.883316 681.749207,234.684769 673.442566,236.171539 
	C666.880310,237.346100 662.295715,242.780426 661.982483,250.548218 
	C661.661011,258.521759 661.832764,266.515167 661.788635,275.499939 
z"/>
<path fill="#042B59" opacity="1.000000" stroke="none" 
	d="
M531.318848,248.801361 
	C531.522461,251.558792 531.766602,253.883408 531.769287,256.208313 
	C531.797180,280.703156 531.852539,305.198364 531.721924,329.692535 
	C531.699951,333.812469 531.325073,338.061768 530.258362,342.020935 
	C526.677917,355.309998 515.846313,362.913696 502.798340,361.756714 
	C489.094757,360.541595 479.339203,351.036835 477.924103,337.425415 
	C477.631836,334.614014 477.498322,331.773804 477.494446,328.946625 
	C477.461548,304.951721 477.436035,280.956573 477.516205,256.961853 
	C477.528931,253.149490 477.629333,249.236938 478.463776,245.545792 
	C481.530945,231.977951 492.439789,223.823593 506.073181,224.522537 
	C519.714417,225.221863 529.088867,234.101837 531.318848,248.801361 
M503.793457,349.798279 
	C513.552002,349.429932 518.856445,344.175903 518.921509,333.838928 
	C519.093445,306.523102 519.016968,279.205261 518.908142,251.888748 
	C518.898499,249.462814 518.211304,246.936768 517.354858,244.637466 
	C515.290771,239.096069 511.189789,236.126343 505.191925,236.007553 
	C499.156891,235.888031 494.169586,238.705185 492.263336,244.296555 
	C491.004303,247.989441 490.491943,252.095657 490.463013,256.022858 
	C490.299774,278.175171 490.364441,300.329315 490.400452,322.482758 
	C490.407776,326.973602 490.331665,331.495697 490.810577,335.947845 
	C491.664337,343.885406 495.191132,347.641724 503.793457,349.798279 
z"/>
<path fill="#052C59" opacity="1.000000" stroke="none" 
	d="
M596.161560,324.348053 
	C589.790100,324.440125 583.843140,324.440125 577.510742,324.440125 
	C577.510742,336.819458 577.510742,348.248993 577.510742,359.952759 
	C573.192688,359.952759 569.271301,359.952759 565.010864,359.952759 
	C565.010864,315.401794 565.010864,270.868317 565.010864,226.190552 
	C575.935120,226.190552 586.957581,225.282730 597.761658,226.430557 
	C610.037720,227.734787 618.063599,236.951111 618.518311,250.211243 
	C619.099304,267.154816 618.834473,284.173431 617.931335,301.106201 
	C617.288757,313.153687 608.393616,321.883240 596.161560,324.348053 
M589.299561,313.022400 
	C599.088257,312.906342 605.649414,308.189423 605.895142,299.606781 
	C606.370667,282.999878 606.257874,266.365204 605.924683,249.751373 
	C605.786133,242.843597 601.214844,238.160141 594.399292,237.451096 
	C589.033447,236.892868 583.563232,237.338974 578.149780,237.338974 
	C578.149780,262.736450 578.149780,287.741638 578.149780,313.022583 
	C581.752441,313.022583 585.052917,313.022583 589.299561,313.022400 
z"/>
<path fill="#052C59" opacity="1.000000" stroke="none" 
	d="
M919.671021,343.507050 
	C925.701965,304.122894 931.645386,265.168884 937.602783,226.122986 
	C942.343628,226.122986 946.634216,226.122986 951.359375,226.122986 
	C958.282837,270.678558 965.195068,315.162018 972.157410,359.967957 
	C967.992004,359.967957 964.224670,359.967957 959.758362,359.967957 
	C957.988403,348.545990 956.195862,336.978027 954.379456,325.256042 
	C947.973999,325.256042 941.861694,325.256042 935.162903,325.256042 
	C933.302002,336.692017 931.445435,348.101562 929.531372,359.863831 
	C925.454407,359.863831 921.414246,359.863831 917.110779,359.863831 
	C917.959412,354.397522 918.771423,349.167389 919.671021,343.507050 
M951.447327,305.875763 
	C949.196777,288.574615 946.946289,271.273499 944.506165,252.514694 
	C941.579346,274.008362 938.849304,294.057587 936.093201,314.297668 
	C941.596497,314.297668 946.862915,314.297668 952.536621,314.297668 
	C952.217407,311.581055 951.931213,309.144989 951.447327,305.875763 
z"/>
<path fill="#032B58" opacity="1.000000" stroke="none" 
	d="
M259.038971,306.892151 
	C259.038971,309.342987 259.038971,311.307892 259.038971,313.710938 
	C268.659454,313.710938 277.914001,313.710938 287.472076,313.710938 
	C287.472076,317.550140 287.472076,320.954193 287.472076,324.763489 
	C278.236145,324.763489 268.985321,324.763489 259.388550,324.763489 
	C259.388550,332.858063 259.388550,340.562866 259.388550,348.690002 
	C271.141113,348.690002 282.749146,348.690002 294.565063,348.690002 
	C294.565063,352.531677 294.565063,355.957764 294.565063,359.713013 
	C278.575684,359.713013 262.670135,359.713013 246.413040,359.713013 
	C246.413040,315.362427 246.413040,270.854401 246.413040,226.057159 
	C262.336609,226.057159 278.239197,226.057159 294.464111,226.057159 
	C294.464111,229.468262 294.464111,232.852097 294.464111,236.685242 
	C282.709351,236.685242 271.131104,236.685242 259.038971,236.685242 
	C259.038971,260.218842 259.038971,283.312531 259.038971,306.892151 
z"/>
<path fill="#092F5C" opacity="1.000000" stroke="none" 
	d="
M736.051086,263.000000 
	C736.051086,250.378815 736.051086,238.257645 736.051086,226.003662 
	C740.375732,226.003662 744.307373,226.003662 748.707703,226.003662 
	C748.707703,266.974976 748.707703,307.689972 748.707703,348.838867 
	C758.425964,348.838867 767.682373,348.838867 777.132446,348.838867 
	C777.132446,352.730804 777.132446,356.186920 777.132446,359.950317 
	C763.533691,359.950317 749.965698,359.950317 736.051086,359.950317 
	C736.051086,327.733032 736.051086,295.616516 736.051086,263.000000 
z"/>
<path fill="#042B58" opacity="1.000000" stroke="none" 
	d="
M348.347656,237.386627 
	C347.993103,278.322235 347.993103,318.927185 347.993103,359.881836 
	C343.889465,359.881836 340.173553,359.881836 336.096924,359.881836 
	C336.096924,319.171265 336.096924,278.438171 336.096924,237.228424 
	C329.858856,237.228424 323.951355,237.228424 317.709106,237.228424 
	C317.709106,233.357315 317.709106,229.958221 317.709106,226.254471 
	C333.652466,226.254471 349.556976,226.254471 365.818176,226.254471 
	C365.818176,229.537537 365.818176,232.935760 365.818176,237.055954 
	C360.233032,237.055954 354.467621,237.055954 348.347656,237.386627 
z"/>
<path fill="#022A57" opacity="1.000000" stroke="none" 
	d="
M870.000000,225.963501 
	C878.281555,225.963501 886.063171,225.963501 894.032837,225.963501 
	C894.032837,229.705368 894.032837,232.989700 894.032837,236.799088 
	C888.209717,236.799088 882.315186,236.799088 876.073975,236.799088 
	C876.073975,278.033966 876.073975,318.747986 876.073975,359.844238 
	C872.008911,359.844238 868.289429,359.844238 864.069458,359.844238 
	C864.069458,319.157898 864.069458,278.302216 864.069458,237.115570 
	C857.816956,237.115570 852.043518,237.115570 845.879150,237.115570 
	C845.879150,233.413742 845.879150,230.034241 845.879150,225.963501 
	C853.681396,225.963501 861.590698,225.963501 870.000000,225.963501 
z"/>
<path fill="#002856" opacity="1.000000" stroke="none" 
	d="
M806.778076,276.999908 
	C806.778076,259.854340 806.778076,243.208801 806.778076,226.170868 
	C810.776306,226.170868 814.645081,226.170868 818.799316,226.170868 
	C818.799316,270.490967 818.799316,314.889862 818.799316,359.660583 
	C815.105652,359.660583 811.230225,359.660583 806.778137,359.660583 
	C806.778137,332.307343 806.778137,304.903656 806.778076,276.999908 
z"/>
<path fill="#032B58" opacity="1.000000" stroke="none" 
	d="
M612.005249,119.000000 
	C612.005249,130.450531 612.005249,141.401062 612.005249,152.593491 
	C609.878296,152.593491 608.153442,152.593491 605.935059,152.593491 
	C605.935059,147.368301 605.935059,142.287186 605.935059,137.006165 
	C601.182800,137.006165 596.913940,137.006165 592.178467,137.006165 
	C592.178467,142.087555 592.178467,147.168808 592.178467,152.541153 
	C589.995789,152.541153 588.270081,152.541153 586.250244,152.541153 
	C586.250244,131.299637 586.250244,110.063614 586.250244,88.322838 
	C587.869934,88.242577 589.603394,88.156677 591.831055,88.046295 
	C591.831055,102.300858 591.831055,116.357407 591.831055,130.701263 
	C596.689392,130.701263 601.071228,130.701263 605.795288,130.701263 
	C605.795288,116.667503 605.795288,102.746094 605.795288,88.341492 
	C607.838806,88.240662 609.575256,88.154991 612.005249,88.035103 
	C612.005249,98.323502 612.005249,108.411751 612.005249,119.000000 
z"/>
<path fill="#0A315D" opacity="1.000000" stroke="none" 
	d="
M582.195801,431.362091 
	C582.195801,429.745148 582.195801,428.582916 582.195801,427.343658 
	C586.750366,425.674469 589.716370,426.985077 591.988770,431.209503 
	C594.238647,435.391907 597.096985,439.246948 600.040405,443.788757 
	C602.940491,439.325775 605.761292,435.631500 607.866028,431.566467 
	C610.034485,427.378387 612.928711,425.762787 617.746582,427.102295 
	C617.746582,438.891418 617.746582,450.779297 617.746582,462.929199 
	C615.842224,462.929199 613.950562,462.929199 611.701233,462.929199 
	C611.701233,455.103760 611.701233,447.473877 611.701233,439.843964 
	C611.342957,439.662415 610.984619,439.480835 610.626343,439.299286 
	C607.254456,444.210358 603.882629,449.121460 600.157043,454.547699 
	C596.571655,449.297913 593.154785,444.294891 589.040161,438.270233 
	C589.040161,447.193298 589.040161,455.016724 589.040161,463.187500 
	C586.604309,463.187500 584.707275,463.187500 582.195740,463.187500 
	C582.195740,452.679810 582.195740,442.248291 582.195801,431.362091 
z"/>
<path fill="#092F5C" opacity="1.000000" stroke="none" 
	d="
M628.990784,138.100891 
	C628.987183,141.197021 628.987183,143.814148 628.987183,146.735229 
	C634.713989,146.735229 639.991211,146.735229 645.623535,146.735229 
	C645.623535,148.726715 645.623535,150.413818 645.623535,152.302505 
	C644.415833,152.385803 643.275146,152.528503 642.133911,152.532532 
	C635.832886,152.554764 629.531738,152.543167 622.902405,152.543167 
	C622.902405,130.986130 622.902405,109.778824 622.902405,88.331863 
	C630.444092,88.331863 637.865234,88.331863 645.701782,88.331863 
	C645.810242,89.886574 645.919434,91.451134 646.063416,93.514481 
	C640.356506,93.514481 634.951904,93.514481 629.270874,93.514481 
	C629.270874,105.883423 629.270874,117.778633 629.270874,130.156158 
	C633.558105,130.156158 637.798401,130.156158 642.327698,130.156158 
	C642.327698,132.189224 642.327698,133.743057 642.327698,135.800888 
	C638.817566,135.800888 635.519836,135.649109 632.250000,135.884491 
	C631.128906,135.965195 630.077576,137.014893 628.990784,138.100891 
z"/>
<path fill="#0D335E" opacity="1.000000" stroke="none" 
	d="
M697.609619,455.303467 
	C698.752136,457.908630 699.705872,460.184967 700.820129,462.844421 
	C698.568909,462.844421 696.508423,462.844421 694.251648,462.844421 
	C694.224670,462.812103 693.967651,462.585602 693.810425,462.303497 
	C692.401489,459.776154 691.386108,455.437927 689.541077,455.052856 
	C684.612671,454.024170 679.320068,454.529907 674.198181,454.846222 
	C673.349426,454.898621 672.288757,456.971008 671.916016,458.278137 
	C670.716125,462.486145 668.312134,464.302307 663.294739,462.729797 
	C664.484741,459.982208 665.676819,457.215637 666.880066,454.453918 
	C670.517761,446.105011 674.048035,437.705627 677.909363,429.461395 
	C678.558228,428.075928 680.653625,426.556030 682.067627,426.568512 
	C683.491821,426.581055 685.555359,428.120178 686.207397,429.518158 
	C690.125916,437.919342 693.718811,446.472412 697.609619,455.303467 
M684.622681,439.935486 
	C683.888733,438.367004 683.154785,436.798492 681.962463,434.250336 
	C679.727295,439.535126 677.886169,443.888092 676.020081,448.300171 
	C680.374390,448.300171 684.055359,448.300171 688.097229,448.300171 
	C686.918030,445.447693 685.922546,443.039490 684.622681,439.935486 
z"/>
<path fill="#0D335E" opacity="1.000000" stroke="none" 
	d="
M550.124207,454.559021 
	C546.216492,454.092316 543.371887,454.607819 542.580139,458.690674 
	C541.650574,463.484131 538.530273,463.926636 534.206970,462.707306 
	C539.108154,451.316345 543.859192,440.055267 548.880798,428.916168 
	C549.429810,427.698364 551.499207,426.607788 552.930786,426.516632 
	C554.151794,426.438904 556.136475,427.583374 556.641724,428.702545 
	C561.678284,439.859253 566.478027,451.122894 571.496033,462.705811 
	C567.314636,463.770905 564.047607,463.846588 563.014648,458.913544 
	C562.270325,455.358551 560.154724,454.042664 556.578674,454.513062 
	C554.617065,454.771057 552.593567,454.559143 550.124207,454.559021 
M558.487976,447.768890 
	C556.701355,443.463531 554.914795,439.158173 552.753479,433.949799 
	C550.443604,439.435364 548.625854,443.752167 546.648315,448.448608 
	C550.968750,448.448608 554.560547,448.448608 558.487976,447.768890 
z"/>
<path fill="#153A64" opacity="1.000000" stroke="none" 
	d="
M563.623657,112.999878 
	C563.623718,106.506653 563.623718,100.513435 563.623718,94.021179 
	C560.858032,94.021179 558.277283,94.021179 555.292114,94.021179 
	C555.292114,91.850471 555.292114,90.170921 555.292114,88.273773 
	C562.782166,88.273773 570.223267,88.273773 577.946045,88.273773 
	C577.946045,89.905769 577.946045,91.504890 577.946045,93.536385 
	C575.379395,93.675964 572.812927,93.815529 569.716125,93.983948 
	C569.716125,113.484169 569.716125,132.884720 569.716125,152.582550 
	C567.459839,152.582550 565.739380,152.582550 563.623596,152.582550 
	C563.623596,139.449509 563.623596,126.474693 563.623657,112.999878 
z"/>
<path fill="#062D5A" opacity="1.000000" stroke="none" 
	d="
M658.698364,434.877991 
	C660.055176,447.289124 657.589478,449.237000 637.633423,451.693970 
	C637.633423,455.206238 637.633423,458.793762 637.633423,462.690857 
	C635.273315,462.690857 633.393677,462.690857 631.263855,462.690857 
	C631.263855,450.859436 631.263855,438.984955 631.263855,426.929199 
	C637.048828,426.929199 642.690796,426.679657 648.299438,427.005096 
	C653.120483,427.284851 656.693604,429.860718 658.698364,434.877991 
M640.694214,445.791931 
	C642.835876,445.652924 645.003967,445.678192 647.113281,445.338348 
	C650.732056,444.755341 652.750183,442.429718 652.608582,438.804565 
	C652.466003,435.152496 650.234070,433.034851 646.565369,432.822021 
	C643.645996,432.652679 640.708984,432.787903 637.377991,432.787903 
	C637.377991,436.618866 637.224854,440.073608 637.489441,443.496094 
	C637.552795,444.315460 639.006714,445.027344 640.694214,445.791931 
z"/>
<path fill="#052C59" opacity="1.000000" stroke="none" 
	d="
M519.234680,451.988953 
	C519.234680,455.808044 519.234680,459.128571 519.234680,462.810547 
	C517.179016,462.810547 515.309570,462.810547 513.062744,462.810547 
	C513.062744,453.058929 513.062744,443.292419 513.062744,433.086334 
	C509.137573,433.086334 505.557404,433.086334 501.464935,433.086334 
	C501.368103,430.960846 501.290253,429.251251 501.198486,427.236511 
	C511.140381,427.236511 520.736145,427.236511 530.655212,427.236511 
	C530.655212,428.900787 530.655212,430.618683 530.655212,432.759949 
	C527.067200,432.759949 523.461853,432.759949 519.234680,432.759949 
	C519.234680,439.269318 519.234680,445.379852 519.234680,451.988953 
z"/>
<path fill="#FBFCFC" opacity="1.000000" stroke="none" 
	d="
M424.050659,313.405548 
	C418.290497,314.020966 412.873993,314.438507 407.208008,314.875305 
	C407.208008,288.623871 407.208008,263.186401 407.208008,237.404953 
	C412.164246,237.404953 417.146912,236.920731 421.993164,237.527176 
	C428.093201,238.290482 431.734375,242.484985 432.907532,248.377090 
	C433.615448,251.932800 433.651367,255.656937 433.676788,259.307587 
	C433.762695,271.639069 433.739899,283.971680 433.697021,296.303619 
	C433.671692,303.600159 431.398224,309.721497 424.050659,313.405548 
z"/>
<path fill="#FEFEFE" opacity="1.000000" stroke="none" 
	d="
M661.788635,274.999908 
	C661.832764,266.515167 661.661011,258.521759 661.982483,250.548218 
	C662.295715,242.780426 666.880310,237.346100 673.442566,236.171539 
	C681.749207,234.684769 688.548157,239.883316 689.874756,248.894226 
	C690.211670,251.182770 690.142395,253.541153 690.143982,255.867508 
	C690.160889,280.490112 690.156494,305.112732 690.149902,329.735352 
	C690.149414,331.564606 690.164368,333.399292 690.038818,335.222229 
	C689.423279,344.157532 683.977173,349.858093 676.150696,349.819641 
	C668.292236,349.781036 662.628662,344.058563 661.943970,335.388153 
	C661.787048,333.401581 661.795898,331.398865 661.794739,329.403534 
	C661.784302,311.435669 661.788635,293.467804 661.788635,274.999908 
z"/>
<path fill="#FBFCFC" opacity="1.000000" stroke="none" 
	d="
M503.394684,349.752075 
	C495.191132,347.641724 491.664337,343.885406 490.810577,335.947845 
	C490.331665,331.495697 490.407776,326.973602 490.400452,322.482758 
	C490.364441,300.329315 490.299774,278.175171 490.463013,256.022858 
	C490.491943,252.095657 491.004303,247.989441 492.263336,244.296555 
	C494.169586,238.705185 499.156891,235.888031 505.191925,236.007553 
	C511.189789,236.126343 515.290771,239.096069 517.354858,244.637466 
	C518.211304,246.936768 518.898499,249.462814 518.908142,251.888748 
	C519.016968,279.205261 519.093445,306.523102 518.921509,333.838928 
	C518.856445,344.175903 513.552002,349.429932 503.394684,349.752075 
z"/>
<path fill="#FEFEFE" opacity="1.000000" stroke="none" 
	d="
M588.826477,313.022491 
	C585.052917,313.022583 581.752441,313.022583 578.149780,313.022583 
	C578.149780,287.741638 578.149780,262.736450 578.149780,237.338974 
	C583.563232,237.338974 589.033447,236.892868 594.399292,237.451096 
	C601.214844,238.160141 605.786133,242.843597 605.924683,249.751373 
	C606.257874,266.365204 606.370667,282.999878 605.895142,299.606781 
	C605.649414,308.189423 599.088257,312.906342 588.826477,313.022491 
z"/>
<path fill="#F4F5F7" opacity="1.000000" stroke="none" 
	d="
M951.546143,306.292358 
	C951.931213,309.144989 952.217407,311.581055 952.536621,314.297668 
	C946.862915,314.297668 941.596497,314.297668 936.093201,314.297668 
	C938.849304,294.057587 941.579346,274.008362 944.506165,252.514694 
	C946.946289,271.273499 949.196777,288.574615 951.546143,306.292358 
z"/>
<path fill="#E6EAEF" opacity="1.000000" stroke="none" 
	d="
M684.774841,440.283386 
	C685.922546,443.039490 686.918030,445.447693 688.097229,448.300171 
	C684.055359,448.300171 680.374390,448.300171 676.020081,448.300171 
	C677.886169,443.888092 679.727295,439.535126 681.962463,434.250336 
	C683.154785,436.798492 683.888733,438.367004 684.774841,440.283386 
z"/>
<path fill="#E6EAEF" opacity="1.000000" stroke="none" 
	d="
M558.320190,448.108765 
	C554.560547,448.448608 550.968750,448.448608 546.648315,448.448608 
	C548.625854,443.752167 550.443604,439.435364 552.753479,433.949799 
	C554.914795,439.158173 556.701355,443.463531 558.320190,448.108765 
z"/>
<path fill="#F4F5F7" opacity="1.000000" stroke="none" 
	d="
M640.257629,445.790283 
	C639.006714,445.027344 637.552795,444.315460 637.489441,443.496094 
	C637.224854,440.073608 637.377991,436.618866 637.377991,432.787903 
	C640.708984,432.787903 643.645996,432.652679 646.565369,432.822021 
	C650.234070,433.034851 652.466003,435.152496 652.608582,438.804565 
	C652.750183,442.429718 650.732056,444.755341 647.113281,445.338348 
	C645.003967,445.678192 642.835876,445.652924 640.257629,445.790283 
z"/>
</svg>